<?xml version="1.0" encoding="utf-8"?>
<!-- Generator: Adobe Illustrator 21.0.0, SVG Export Plug-In . SVG Version: 6.00 Build 0)  -->
<svg version="1.1" id="Layer_1" xmlns="http://www.w3.org/2000/svg" xmlns:xlink="http://www.w3.org/1999/xlink" x="0px" y="0px"
	 viewBox="0 0 107.4 76" style="enable-background:new 0 0 107.4 76;" xml:space="preserve">
<style type="text/css">
	.st0{fill:#C51321;}
	.st1{fill:#D0D0D0;}
	.st2{fill:#009FE3;}
	.st3{fill:#E30613;}
	.st4{fill:#E3E3E3;}
	.st5{fill:#575756;}
</style>
<g>
	<polygon class="st0" points="57.7,22.4 50.5,22.4 61.9,33.8 65.5,30.2 	"/>
	<polygon class="st1" points="63.6,13.3 70.8,13.3 59.3,1.9 55.7,5.5 	"/>
	<polygon class="st2" points="45.9,15.3 40.8,20.4 75.3,20.4 80.4,15.3 	"/>
	<polygon class="st3" points="81,15.3 80.4,15.3 75.3,20.4 65.5,30.2 61.9,33.8 62.2,34.1 63.8,35.7 67.3,35.7 83.4,19.6 81.6,15.3 
			"/>
	<polygon class="st4" points="55.7,5.5 59.3,1.9 59.1,1.6 57.5,0 54,0 37.9,16.1 39.6,20.4 40.3,20.4 40.8,20.4 45.9,15.3 	"/>
</g>
<path class="st5" d="M0,50.6V31.5h8.9c3.5,0,5.6,2.3,5.6,6.1c0,3.8-2.1,6.2-5.6,6.2H4.7v6.8H0z M4.7,39.8H8c0.9,0,1.7-0.6,1.7-2
	c0-1.4-0.8-2.1-1.7-2.1H4.7V39.8z"/>
<polygon class="st5" points="15.7,31.5 20,31.5 24.2,39.9 27.9,31.5 32,31.5 32,33.1 24.2,50.6 20,50.6 20,49.1 21.9,45 15.7,33.1 
	"/>
<path class="st5" d="M33.9,44.1V38c0-4.4,2.7-6.9,7.6-6.9c2.1,0,3.8,0.6,5.2,1.7c1.4,1.1,2,2.8,2,5.1v0.3H44v-0.3
	c0-1.7-1.2-2.5-2.8-2.5c-1.7,0-2.6,0.7-2.6,2.2v6.8c0,1.5,0.9,2.3,2.6,2.3c1.9,0,2.8-0.8,2.8-2.5V44h4.7v0.3c0,2.3-0.7,4-2,5.1
	c-1.3,1.1-3.1,1.7-5.2,1.7C36.6,51,33.9,48.5,33.9,44.1"/>
<polygon class="st5" points="0,76 0,56.9 2.4,56.9 2.4,71.8 11.9,56.9 14.1,56.9 14.1,76 11.7,76 11.7,61 2.2,76 "/>
<polygon class="st5" points="19.2,76 19.2,56.9 21.6,56.9 21.6,65.3 30.9,65.3 30.9,56.9 33.2,56.9 33.2,76 30.9,76 30.9,67.4 
	21.6,67.4 21.6,76 "/>
<polygon class="st5" points="46.8,76 46.8,67.4 43.8,67.4 39,76 36.7,76 36.7,75.2 41.8,66.3 37,57.7 37,56.9 39.2,56.9 43.8,65.3 
	46.8,65.3 46.8,56.9 49.2,56.9 49.2,65.3 52.2,65.3 56.8,56.9 58.9,56.9 58.9,57.7 54.2,66.3 59.3,75.2 59.3,76 56.9,76 52.2,67.4 
	49.2,67.4 49.2,76 "/>
<polygon class="st5" points="62.7,76 62.7,56.9 74.6,56.9 74.6,59 65.1,59 65.1,65.3 73.4,65.3 73.4,67.4 65.1,67.4 65.1,73.9 
	74.7,73.9 74.7,76 "/>
<polygon class="st5" points="78.7,76 78.7,56.9 81,56.9 81,65.3 84.1,65.3 89.6,56.9 91.8,56.9 91.8,57.7 86.2,66.2 92.2,75.2 
	92.2,76 89.8,76 84.1,67.4 81,67.4 81,76 "/>
<polygon class="st5" points="99.2,76 99.2,59 93.4,59 93.4,56.9 107.4,56.9 107.4,59 101.6,59 101.6,76 "/>
</svg>
